<svg xmlns="http://www.w3.org/2000/svg" width="1200" height="460" viewBox="0 0 1200 460">
<defs><linearGradient id="sky" x1="0" y1="0" x2="0" y2="1">
<stop offset="0" stop-color="#f5efe9"/><stop offset="0.46" stop-color="#ede0d4"/><stop offset="1" stop-color="#d3c2b0"/>
</linearGradient></defs>
<rect width="1200" height="460" fill="url(#sky)"/>
<circle cx="936" cy="119.60000000000001" r="59.800000000000004" fill="#a68a64"/>
<g transform="translate(0.0 296.2) scale(0.2447 0.2447)"><path d="M0 440L760 440L760 500L0 500ZM1.5 440Q15.2 248.5 37.5 277.7Q61.3 261.5 73.6 440ZM43.9 440Q61.9 221.6 91.4 254.9Q122.7 236.4 138.8 440ZM89.9 440Q108.3 220.5 138.2 254Q170.1 235.4 186.5 440ZM157.3 440Q172.9 225.4 198.3 258.1Q225.4 239.9 239.4 440ZM200.6 440Q220 286.4 251.6 309.8Q285.2 296.8 302.5 440ZM240.7 440Q260.4 291.6 292.5 314.3Q326.7 301.7 344.4 440ZM316.8 440Q332.7 200.8 358.8 237.3Q386.5 217 400.8 440ZM365.5 440Q379.4 236.3 402.1 267.3Q426.2 250.1 438.7 440ZM421.7 440Q437.6 266.6 463.6 293.1Q491.4 278.4 505.6 440ZM473.1 440Q488.9 291 514.6 313.7Q541.9 301.1 556 440ZM512 440Q530.3 276.8 560.1 301.7Q591.8 287.8 608.2 440ZM574.4 440Q590.5 285 616.8 308.7Q644.7 295.5 659.1 440ZM630.4 440Q645.9 217.6 671.1 251.5Q698 232.7 711.9 440ZM692.8 440Q708.7 267.4 734.8 293.7Q762.5 279.1 776.8 440Z" fill="#bca68d"/></g><g transform="translate(186.0 296.2) scale(0.2447 0.2447)"><path d="M0 440L760 440L760 500L0 500ZM1.5 440Q15.2 248.5 37.5 277.7Q61.3 261.5 73.6 440ZM43.9 440Q61.9 221.6 91.4 254.9Q122.7 236.4 138.8 440ZM89.9 440Q108.3 220.5 138.2 254Q170.1 235.4 186.5 440ZM157.3 440Q172.9 225.4 198.3 258.1Q225.4 239.9 239.4 440ZM200.6 440Q220 286.4 251.6 309.8Q285.2 296.8 302.5 440ZM240.7 440Q260.4 291.6 292.5 314.3Q326.7 301.7 344.4 440ZM316.8 440Q332.7 200.8 358.8 237.3Q386.5 217 400.8 440ZM365.5 440Q379.4 236.3 402.1 267.3Q426.2 250.1 438.7 440ZM421.7 440Q437.6 266.6 463.6 293.1Q491.4 278.4 505.6 440ZM473.1 440Q488.9 291 514.6 313.7Q541.9 301.1 556 440ZM512 440Q530.3 276.8 560.1 301.7Q591.8 287.8 608.2 440ZM574.4 440Q590.5 285 616.8 308.7Q644.7 295.5 659.1 440ZM630.4 440Q645.9 217.6 671.1 251.5Q698 232.7 711.9 440ZM692.8 440Q708.7 267.4 734.8 293.7Q762.5 279.1 776.8 440Z" fill="#bca68d"/></g><g transform="translate(372.0 296.2) scale(0.2447 0.2447)"><path d="M0 440L760 440L760 500L0 500ZM1.5 440Q15.2 248.5 37.5 277.7Q61.3 261.5 73.6 440ZM43.9 440Q61.9 221.6 91.4 254.9Q122.7 236.4 138.8 440ZM89.9 440Q108.3 220.5 138.2 254Q170.1 235.4 186.5 440ZM157.3 440Q172.9 225.4 198.3 258.1Q225.4 239.9 239.4 440ZM200.6 440Q220 286.4 251.6 309.8Q285.2 296.8 302.5 440ZM240.7 440Q260.4 291.6 292.5 314.3Q326.7 301.7 344.4 440ZM316.8 440Q332.7 200.8 358.8 237.3Q386.5 217 400.8 440ZM365.5 440Q379.4 236.3 402.1 267.3Q426.2 250.1 438.7 440ZM421.7 440Q437.6 266.6 463.6 293.1Q491.4 278.4 505.6 440ZM473.1 440Q488.9 291 514.6 313.7Q541.9 301.1 556 440ZM512 440Q530.3 276.8 560.1 301.7Q591.8 287.8 608.2 440ZM574.4 440Q590.5 285 616.8 308.7Q644.7 295.5 659.1 440ZM630.4 440Q645.9 217.6 671.1 251.5Q698 232.7 711.9 440ZM692.8 440Q708.7 267.4 734.8 293.7Q762.5 279.1 776.8 440Z" fill="#bca68d"/></g><g transform="translate(558.0 296.2) scale(0.2447 0.2447)"><path d="M0 440L760 440L760 500L0 500ZM1.5 440Q15.2 248.5 37.5 277.7Q61.3 261.5 73.6 440ZM43.9 440Q61.9 221.6 91.4 254.9Q122.7 236.4 138.8 440ZM89.9 440Q108.3 220.5 138.2 254Q170.1 235.4 186.5 440ZM157.3 440Q172.9 225.4 198.3 258.1Q225.4 239.9 239.4 440ZM200.6 440Q220 286.4 251.6 309.8Q285.2 296.8 302.5 440ZM240.7 440Q260.4 291.6 292.5 314.3Q326.7 301.7 344.4 440ZM316.8 440Q332.7 200.8 358.8 237.3Q386.5 217 400.8 440ZM365.5 440Q379.4 236.3 402.1 267.3Q426.2 250.1 438.7 440ZM421.7 440Q437.6 266.6 463.6 293.1Q491.4 278.4 505.6 440ZM473.1 440Q488.9 291 514.6 313.7Q541.9 301.1 556 440ZM512 440Q530.3 276.8 560.1 301.7Q591.8 287.8 608.2 440ZM574.4 440Q590.5 285 616.8 308.7Q644.7 295.5 659.1 440ZM630.4 440Q645.9 217.6 671.1 251.5Q698 232.7 711.9 440ZM692.8 440Q708.7 267.4 734.8 293.7Q762.5 279.1 776.8 440Z" fill="#bca68d"/></g><g transform="translate(743.9 296.2) scale(0.2447 0.2447)"><path d="M0 440L760 440L760 500L0 500ZM1.5 440Q15.2 248.5 37.5 277.7Q61.3 261.5 73.6 440ZM43.9 440Q61.9 221.6 91.4 254.9Q122.7 236.4 138.8 440ZM89.9 440Q108.3 220.5 138.2 254Q170.1 235.4 186.5 440ZM157.3 440Q172.9 225.4 198.3 258.1Q225.4 239.9 239.4 440ZM200.6 440Q220 286.4 251.6 309.8Q285.2 296.8 302.5 440ZM240.7 440Q260.4 291.6 292.5 314.3Q326.7 301.7 344.4 440ZM316.8 440Q332.7 200.8 358.8 237.3Q386.5 217 400.8 440ZM365.5 440Q379.4 236.3 402.1 267.3Q426.2 250.1 438.7 440ZM421.7 440Q437.6 266.6 463.6 293.1Q491.4 278.4 505.6 440ZM473.1 440Q488.9 291 514.6 313.7Q541.9 301.1 556 440ZM512 440Q530.3 276.8 560.1 301.7Q591.8 287.8 608.2 440ZM574.4 440Q590.5 285 616.8 308.7Q644.7 295.5 659.1 440ZM630.4 440Q645.9 217.6 671.1 251.5Q698 232.7 711.9 440ZM692.8 440Q708.7 267.4 734.8 293.7Q762.5 279.1 776.8 440Z" fill="#bca68d"/></g><g transform="translate(929.9 296.2) scale(0.2447 0.2447)"><path d="M0 440L760 440L760 500L0 500ZM1.5 440Q15.2 248.5 37.5 277.7Q61.3 261.5 73.6 440ZM43.9 440Q61.9 221.6 91.4 254.9Q122.7 236.4 138.8 440ZM89.9 440Q108.3 220.5 138.2 254Q170.1 235.4 186.5 440ZM157.3 440Q172.9 225.4 198.3 258.1Q225.4 239.9 239.4 440ZM200.6 440Q220 286.4 251.6 309.8Q285.2 296.8 302.5 440ZM240.7 440Q260.4 291.6 292.5 314.3Q326.7 301.7 344.4 440ZM316.8 440Q332.7 200.8 358.8 237.3Q386.5 217 400.8 440ZM365.5 440Q379.4 236.3 402.1 267.3Q426.2 250.1 438.7 440ZM421.7 440Q437.6 266.6 463.6 293.1Q491.4 278.4 505.6 440ZM473.1 440Q488.9 291 514.6 313.7Q541.9 301.1 556 440ZM512 440Q530.3 276.8 560.1 301.7Q591.8 287.8 608.2 440ZM574.4 440Q590.5 285 616.8 308.7Q644.7 295.5 659.1 440ZM630.4 440Q645.9 217.6 671.1 251.5Q698 232.7 711.9 440ZM692.8 440Q708.7 267.4 734.8 293.7Q762.5 279.1 776.8 440Z" fill="#bca68d"/></g><g transform="translate(1115.9 296.2) scale(0.2447 0.2447)"><path d="M0 440L760 440L760 500L0 500ZM1.5 440Q15.2 248.5 37.5 277.7Q61.3 261.5 73.6 440ZM43.9 440Q61.9 221.6 91.4 254.9Q122.7 236.4 138.8 440ZM89.9 440Q108.3 220.5 138.2 254Q170.1 235.4 186.5 440ZM157.3 440Q172.9 225.4 198.3 258.1Q225.4 239.9 239.4 440ZM200.6 440Q220 286.4 251.6 309.8Q285.2 296.8 302.5 440ZM240.7 440Q260.4 291.6 292.5 314.3Q326.7 301.7 344.4 440ZM316.8 440Q332.7 200.8 358.8 237.3Q386.5 217 400.8 440ZM365.5 440Q379.4 236.3 402.1 267.3Q426.2 250.1 438.7 440ZM421.7 440Q437.6 266.6 463.6 293.1Q491.4 278.4 505.6 440ZM473.1 440Q488.9 291 514.6 313.7Q541.9 301.1 556 440ZM512 440Q530.3 276.8 560.1 301.7Q591.8 287.8 608.2 440ZM574.4 440Q590.5 285 616.8 308.7Q644.7 295.5 659.1 440ZM630.4 440Q645.9 217.6 671.1 251.5Q698 232.7 711.9 440ZM692.8 440Q708.7 267.4 734.8 293.7Q762.5 279.1 776.8 440Z" fill="#bca68d"/></g><g transform="translate(1301.9 296.2) scale(0.2447 0.2447)"><path d="M0 440L760 440L760 500L0 500ZM1.5 440Q15.2 248.5 37.5 277.7Q61.3 261.5 73.6 440ZM43.9 440Q61.9 221.6 91.4 254.9Q122.7 236.4 138.8 440ZM89.9 440Q108.3 220.5 138.2 254Q170.1 235.4 186.5 440ZM157.3 440Q172.9 225.4 198.3 258.1Q225.4 239.9 239.4 440ZM200.6 440Q220 286.4 251.6 309.8Q285.2 296.8 302.5 440ZM240.7 440Q260.4 291.6 292.5 314.3Q326.7 301.7 344.4 440ZM316.8 440Q332.7 200.8 358.8 237.3Q386.5 217 400.8 440ZM365.5 440Q379.4 236.3 402.1 267.3Q426.2 250.1 438.7 440ZM421.7 440Q437.6 266.6 463.6 293.1Q491.4 278.4 505.6 440ZM473.1 440Q488.9 291 514.6 313.7Q541.9 301.1 556 440ZM512 440Q530.3 276.8 560.1 301.7Q591.8 287.8 608.2 440ZM574.4 440Q590.5 285 616.8 308.7Q644.7 295.5 659.1 440ZM630.4 440Q645.9 217.6 671.1 251.5Q698 232.7 711.9 440ZM692.8 440Q708.7 267.4 734.8 293.7Q762.5 279.1 776.8 440Z" fill="#bca68d"/></g><rect x="0" y="417.6" width="1200" height="42.4" fill="#bca68d"/><g transform="translate(0.0 275.1) scale(0.2770 0.2770)"><path d="M0 499.8L880 499.8L880 568L0 568ZM5.9 499.8L5.9 479.1L17.3 357.1L19.2 259.3L24.2 127L29.6 39.5L34.7 127L39.9 260.5L41.2 357.1L53.3 481.4L53.3 499.8ZM52.9 499.8L52.9 486.5L63.5 408.1L65.2 345.3L69.9 260.2L74.9 204L81 260.2L85.4 346L87.7 408.1L96.9 488L96.9 499.8ZM115.7 499.8L115.7 486.3L125 406.6L126.5 342.6L130.5 256.1L135 198.9L140.1 256.1L143.8 343.4L146.2 406.6L154.2 487.8L154.2 499.8ZM160.5 499.8L160.5 479.9L171.5 362.2L173.2 267.9L178 140.3L183.3 55.9L187.9 140.3L193.3 269L193.8 362.2L206 482.1L206 499.8ZM203.8 499.8L203.8 487L215.3 411.2L217.2 350.5L222.2 268.3L227.7 214L233.2 268.3L238.7 351.2L239.7 411.2L251.6 488.4L251.6 499.8ZM266.3 499.8L266.3 485.5L275.7 401L277.2 333.3L281.3 241.6L285.8 181L290.9 241.6L294.8 334.1L296.8 401L305.3 487.1L305.3 499.8ZM316 499.8L316 482.4L325.6 379.9L327.2 297.7L331.5 186.4L336.1 112.9L341.3 186.4L345.3 298.6L347.3 379.9L356.2 484.4L356.2 499.8ZM372.2 499.8L372.2 482.2L382.8 378.4L384.6 295.1L389.3 182.4L394.4 108L399.5 182.4L404.4 296.1L405.6 378.4L416.6 484.2L416.6 499.8ZM419.4 499.8L419.4 482.5L431.5 380.5L433.5 298.6L438.8 187.9L444.6 114.8L450.6 187.9L455.9 299.6L458 380.5L469.8 484.4L469.8 499.8ZM468.3 499.8L468.3 481.5L477.8 373.8L479.3 287.4L483.5 170.5L488.1 93.2L493.6 170.5L497.6 288.4L499.6 373.8L507.9 483.6L507.9 499.8ZM528 499.8L528 484.2L536.9 392.3L538.3 318.7L542.3 219L546.5 153.1L551.4 219L555.3 319.5L556.7 392.3L565.1 486L565.1 499.8ZM569.4 499.8L569.4 480L579.5 363L581.2 269.2L585.7 142.3L590.5 58.4L596.3 142.3L600.5 270.3L602.8 363L611.7 482.2L611.7 499.8ZM626 499.8L626 484.4L636.6 393.5L638.3 320.6L643 221.9L648.1 156.7L654.4 221.9L658.6 321.4L661.3 393.5L670.2 486.1L670.2 499.8ZM679.1 499.8L679.1 486.4L691.4 407.3L693.4 343.8L698.7 257.9L704.6 201.2L711.5 257.9L716.6 344.5L719.2 407.3L730 487.9L730 499.8ZM736 499.8L736 485.4L744.8 400.6L746.3 332.6L750.2 240.5L754.4 179.7L759 240.5L763.1 333.4L764 400.6L772.8 487L772.8 499.8ZM778 499.8L778 487.5L788 414.7L789.6 356.3L794 277.4L798.8 225.2L803.2 277.4L807.9 357L809 414.7L819.6 488.9L819.6 499.8ZM835.5 499.8L835.5 485.7L844.6 402.3L846.1 335.4L850.1 244.9L854.5 185.1L858.5 244.9L862.6 336.2L863.9 402.3L873.4 487.3L873.4 499.8Z" fill="#817854"/></g><g transform="translate(243.7 275.1) scale(0.2770 0.2770)"><path d="M0 499.8L880 499.8L880 568L0 568ZM5.9 499.8L5.9 479.1L17.3 357.1L19.2 259.3L24.2 127L29.6 39.5L34.7 127L39.9 260.5L41.2 357.1L53.3 481.4L53.3 499.8ZM52.9 499.8L52.9 486.5L63.5 408.1L65.2 345.3L69.9 260.2L74.9 204L81 260.2L85.4 346L87.7 408.1L96.9 488L96.9 499.8ZM115.7 499.8L115.7 486.3L125 406.6L126.5 342.6L130.5 256.1L135 198.9L140.1 256.1L143.8 343.4L146.2 406.6L154.2 487.8L154.2 499.8ZM160.5 499.8L160.5 479.9L171.5 362.2L173.2 267.9L178 140.3L183.3 55.9L187.9 140.3L193.3 269L193.8 362.2L206 482.1L206 499.8ZM203.8 499.8L203.8 487L215.3 411.2L217.2 350.5L222.2 268.3L227.7 214L233.2 268.3L238.7 351.2L239.7 411.2L251.6 488.4L251.6 499.8ZM266.3 499.8L266.3 485.5L275.7 401L277.2 333.3L281.3 241.6L285.8 181L290.9 241.6L294.8 334.1L296.8 401L305.3 487.1L305.3 499.8ZM316 499.8L316 482.4L325.6 379.9L327.2 297.7L331.5 186.4L336.1 112.9L341.3 186.4L345.3 298.6L347.3 379.9L356.2 484.4L356.2 499.8ZM372.2 499.8L372.2 482.2L382.8 378.4L384.6 295.1L389.3 182.4L394.4 108L399.5 182.4L404.4 296.1L405.6 378.4L416.6 484.2L416.6 499.8ZM419.4 499.8L419.4 482.5L431.5 380.5L433.5 298.6L438.8 187.9L444.6 114.8L450.6 187.9L455.9 299.6L458 380.5L469.8 484.4L469.8 499.8ZM468.3 499.8L468.3 481.5L477.8 373.8L479.3 287.4L483.5 170.5L488.1 93.2L493.6 170.5L497.6 288.4L499.6 373.8L507.9 483.6L507.9 499.8ZM528 499.8L528 484.2L536.9 392.3L538.3 318.7L542.3 219L546.5 153.1L551.4 219L555.3 319.5L556.7 392.3L565.1 486L565.1 499.8ZM569.4 499.8L569.4 480L579.5 363L581.2 269.2L585.7 142.3L590.5 58.4L596.3 142.3L600.5 270.3L602.8 363L611.7 482.2L611.7 499.8ZM626 499.8L626 484.4L636.6 393.5L638.3 320.6L643 221.9L648.1 156.7L654.4 221.9L658.6 321.4L661.3 393.5L670.2 486.1L670.2 499.8ZM679.1 499.8L679.1 486.4L691.4 407.3L693.4 343.8L698.7 257.9L704.6 201.2L711.5 257.9L716.6 344.5L719.2 407.3L730 487.9L730 499.8ZM736 499.8L736 485.4L744.8 400.6L746.3 332.6L750.2 240.5L754.4 179.7L759 240.5L763.1 333.4L764 400.6L772.8 487L772.8 499.8ZM778 499.8L778 487.5L788 414.7L789.6 356.3L794 277.4L798.8 225.2L803.2 277.4L807.9 357L809 414.7L819.6 488.9L819.6 499.8ZM835.5 499.8L835.5 485.7L844.6 402.3L846.1 335.4L850.1 244.9L854.5 185.1L858.5 244.9L862.6 336.2L863.9 402.3L873.4 487.3L873.4 499.8Z" fill="#817854"/></g><g transform="translate(487.5 275.1) scale(0.2770 0.2770)"><path d="M0 499.8L880 499.8L880 568L0 568ZM5.9 499.8L5.9 479.1L17.3 357.1L19.2 259.3L24.2 127L29.6 39.5L34.7 127L39.9 260.5L41.2 357.1L53.3 481.4L53.3 499.8ZM52.9 499.8L52.9 486.5L63.5 408.1L65.2 345.3L69.9 260.2L74.9 204L81 260.2L85.4 346L87.7 408.1L96.9 488L96.9 499.8ZM115.7 499.8L115.7 486.3L125 406.6L126.5 342.6L130.5 256.1L135 198.9L140.1 256.1L143.8 343.4L146.2 406.6L154.2 487.8L154.2 499.8ZM160.5 499.8L160.5 479.9L171.5 362.2L173.2 267.9L178 140.3L183.3 55.9L187.9 140.3L193.3 269L193.8 362.2L206 482.1L206 499.8ZM203.8 499.8L203.8 487L215.3 411.2L217.2 350.5L222.2 268.3L227.7 214L233.2 268.3L238.7 351.2L239.7 411.2L251.6 488.4L251.6 499.8ZM266.3 499.8L266.3 485.5L275.7 401L277.2 333.3L281.3 241.6L285.8 181L290.9 241.6L294.8 334.1L296.8 401L305.3 487.1L305.3 499.8ZM316 499.8L316 482.4L325.6 379.9L327.2 297.7L331.5 186.4L336.1 112.9L341.3 186.4L345.3 298.6L347.3 379.9L356.2 484.4L356.2 499.8ZM372.2 499.8L372.2 482.2L382.8 378.4L384.6 295.1L389.3 182.4L394.4 108L399.5 182.4L404.4 296.1L405.6 378.4L416.6 484.2L416.6 499.8ZM419.4 499.8L419.4 482.5L431.5 380.5L433.5 298.6L438.8 187.9L444.6 114.8L450.6 187.9L455.9 299.6L458 380.5L469.8 484.4L469.8 499.8ZM468.3 499.8L468.3 481.5L477.8 373.8L479.3 287.4L483.5 170.5L488.1 93.2L493.6 170.5L497.6 288.4L499.6 373.8L507.9 483.6L507.9 499.8ZM528 499.8L528 484.2L536.9 392.3L538.3 318.7L542.3 219L546.5 153.1L551.4 219L555.3 319.5L556.7 392.3L565.1 486L565.1 499.8ZM569.4 499.8L569.4 480L579.5 363L581.2 269.2L585.7 142.3L590.5 58.4L596.3 142.3L600.5 270.3L602.8 363L611.7 482.2L611.7 499.8ZM626 499.8L626 484.4L636.6 393.5L638.3 320.6L643 221.9L648.1 156.7L654.4 221.9L658.6 321.4L661.3 393.5L670.2 486.1L670.2 499.8ZM679.1 499.8L679.1 486.4L691.4 407.3L693.4 343.8L698.7 257.9L704.6 201.2L711.5 257.9L716.6 344.5L719.2 407.3L730 487.9L730 499.8ZM736 499.8L736 485.4L744.8 400.6L746.3 332.6L750.2 240.5L754.4 179.7L759 240.5L763.1 333.4L764 400.6L772.8 487L772.8 499.8ZM778 499.8L778 487.5L788 414.7L789.6 356.3L794 277.4L798.8 225.2L803.2 277.4L807.9 357L809 414.7L819.6 488.9L819.6 499.8ZM835.5 499.8L835.5 485.7L844.6 402.3L846.1 335.4L850.1 244.9L854.5 185.1L858.5 244.9L862.6 336.2L863.9 402.3L873.4 487.3L873.4 499.8Z" fill="#817854"/></g><g transform="translate(731.2 275.1) scale(0.2770 0.2770)"><path d="M0 499.8L880 499.8L880 568L0 568ZM5.9 499.8L5.9 479.1L17.3 357.1L19.2 259.3L24.2 127L29.6 39.5L34.7 127L39.9 260.5L41.2 357.1L53.3 481.4L53.3 499.8ZM52.9 499.8L52.9 486.5L63.5 408.1L65.2 345.3L69.9 260.2L74.9 204L81 260.2L85.4 346L87.7 408.1L96.9 488L96.9 499.8ZM115.7 499.8L115.7 486.3L125 406.6L126.5 342.6L130.5 256.1L135 198.9L140.1 256.1L143.8 343.4L146.2 406.6L154.2 487.8L154.2 499.8ZM160.5 499.8L160.5 479.9L171.5 362.2L173.2 267.9L178 140.3L183.3 55.9L187.9 140.3L193.3 269L193.8 362.2L206 482.1L206 499.8ZM203.8 499.8L203.8 487L215.3 411.2L217.2 350.5L222.2 268.3L227.7 214L233.2 268.3L238.7 351.2L239.7 411.2L251.6 488.4L251.6 499.8ZM266.3 499.8L266.3 485.5L275.7 401L277.2 333.3L281.3 241.6L285.8 181L290.9 241.6L294.8 334.1L296.8 401L305.3 487.1L305.3 499.8ZM316 499.8L316 482.4L325.6 379.9L327.2 297.7L331.5 186.4L336.1 112.9L341.3 186.4L345.3 298.6L347.3 379.9L356.2 484.4L356.2 499.8ZM372.2 499.8L372.2 482.2L382.8 378.4L384.6 295.1L389.3 182.4L394.4 108L399.5 182.4L404.4 296.1L405.6 378.4L416.6 484.2L416.6 499.8ZM419.4 499.8L419.4 482.5L431.5 380.5L433.5 298.6L438.8 187.9L444.6 114.8L450.6 187.9L455.9 299.6L458 380.5L469.8 484.4L469.8 499.8ZM468.3 499.8L468.3 481.5L477.8 373.8L479.3 287.4L483.5 170.5L488.1 93.2L493.6 170.5L497.6 288.4L499.6 373.8L507.9 483.6L507.9 499.8ZM528 499.8L528 484.2L536.9 392.3L538.3 318.7L542.3 219L546.5 153.1L551.4 219L555.3 319.5L556.7 392.3L565.1 486L565.1 499.8ZM569.4 499.8L569.4 480L579.5 363L581.2 269.2L585.7 142.3L590.5 58.4L596.3 142.3L600.5 270.3L602.8 363L611.7 482.2L611.7 499.8ZM626 499.8L626 484.4L636.6 393.5L638.3 320.6L643 221.9L648.1 156.7L654.4 221.9L658.6 321.4L661.3 393.5L670.2 486.1L670.2 499.8ZM679.1 499.8L679.1 486.4L691.4 407.3L693.4 343.8L698.7 257.9L704.6 201.2L711.5 257.9L716.6 344.5L719.2 407.3L730 487.9L730 499.8ZM736 499.8L736 485.4L744.8 400.6L746.3 332.6L750.2 240.5L754.4 179.7L759 240.5L763.1 333.4L764 400.6L772.8 487L772.8 499.8ZM778 499.8L778 487.5L788 414.7L789.6 356.3L794 277.4L798.8 225.2L803.2 277.4L807.9 357L809 414.7L819.6 488.9L819.6 499.8ZM835.5 499.8L835.5 485.7L844.6 402.3L846.1 335.4L850.1 244.9L854.5 185.1L858.5 244.9L862.6 336.2L863.9 402.3L873.4 487.3L873.4 499.8Z" fill="#817854"/></g><g transform="translate(974.9 275.1) scale(0.2770 0.2770)"><path d="M0 499.8L880 499.8L880 568L0 568ZM5.9 499.8L5.9 479.1L17.3 357.1L19.2 259.3L24.2 127L29.6 39.5L34.7 127L39.9 260.5L41.2 357.1L53.3 481.4L53.3 499.8ZM52.9 499.8L52.9 486.5L63.5 408.1L65.2 345.3L69.9 260.2L74.9 204L81 260.2L85.4 346L87.7 408.1L96.9 488L96.9 499.8ZM115.7 499.8L115.7 486.3L125 406.6L126.5 342.6L130.5 256.1L135 198.9L140.1 256.1L143.8 343.4L146.2 406.6L154.2 487.8L154.2 499.8ZM160.5 499.8L160.5 479.9L171.5 362.2L173.2 267.9L178 140.3L183.3 55.9L187.9 140.3L193.3 269L193.8 362.2L206 482.1L206 499.8ZM203.8 499.8L203.8 487L215.3 411.2L217.2 350.5L222.2 268.3L227.7 214L233.2 268.3L238.7 351.2L239.7 411.2L251.6 488.4L251.6 499.8ZM266.3 499.8L266.3 485.5L275.7 401L277.2 333.3L281.3 241.6L285.8 181L290.9 241.6L294.8 334.1L296.8 401L305.3 487.1L305.3 499.8ZM316 499.8L316 482.4L325.6 379.9L327.2 297.7L331.5 186.4L336.1 112.9L341.3 186.4L345.3 298.6L347.3 379.9L356.2 484.4L356.2 499.8ZM372.2 499.8L372.2 482.2L382.8 378.4L384.6 295.1L389.3 182.4L394.4 108L399.5 182.4L404.4 296.1L405.6 378.4L416.6 484.2L416.6 499.8ZM419.4 499.8L419.4 482.5L431.5 380.5L433.5 298.6L438.8 187.9L444.6 114.8L450.6 187.9L455.9 299.6L458 380.5L469.8 484.4L469.8 499.8ZM468.3 499.8L468.3 481.5L477.8 373.8L479.3 287.4L483.5 170.5L488.1 93.2L493.6 170.5L497.6 288.4L499.6 373.8L507.9 483.6L507.9 499.8ZM528 499.8L528 484.2L536.9 392.3L538.3 318.7L542.3 219L546.5 153.1L551.4 219L555.3 319.5L556.7 392.3L565.1 486L565.1 499.8ZM569.4 499.8L569.4 480L579.5 363L581.2 269.2L585.7 142.3L590.5 58.4L596.3 142.3L600.5 270.3L602.8 363L611.7 482.2L611.7 499.8ZM626 499.8L626 484.4L636.6 393.5L638.3 320.6L643 221.9L648.1 156.7L654.4 221.9L658.6 321.4L661.3 393.5L670.2 486.1L670.2 499.8ZM679.1 499.8L679.1 486.4L691.4 407.3L693.4 343.8L698.7 257.9L704.6 201.2L711.5 257.9L716.6 344.5L719.2 407.3L730 487.9L730 499.8ZM736 499.8L736 485.4L744.8 400.6L746.3 332.6L750.2 240.5L754.4 179.7L759 240.5L763.1 333.4L764 400.6L772.8 487L772.8 499.8ZM778 499.8L778 487.5L788 414.7L789.6 356.3L794 277.4L798.8 225.2L803.2 277.4L807.9 357L809 414.7L819.6 488.9L819.6 499.8ZM835.5 499.8L835.5 485.7L844.6 402.3L846.1 335.4L850.1 244.9L854.5 185.1L858.5 244.9L862.6 336.2L863.9 402.3L873.4 487.3L873.4 499.8Z" fill="#817854"/></g><g transform="translate(1218.7 275.1) scale(0.2770 0.2770)"><path d="M0 499.8L880 499.8L880 568L0 568ZM5.9 499.8L5.9 479.1L17.3 357.1L19.2 259.3L24.2 127L29.6 39.5L34.7 127L39.9 260.5L41.2 357.1L53.3 481.4L53.3 499.8ZM52.9 499.8L52.9 486.5L63.5 408.1L65.2 345.3L69.9 260.2L74.9 204L81 260.2L85.4 346L87.7 408.1L96.9 488L96.9 499.8ZM115.7 499.8L115.7 486.3L125 406.6L126.5 342.6L130.5 256.1L135 198.9L140.1 256.1L143.8 343.4L146.2 406.6L154.2 487.8L154.2 499.8ZM160.5 499.8L160.5 479.9L171.5 362.2L173.2 267.9L178 140.3L183.3 55.9L187.9 140.3L193.3 269L193.8 362.2L206 482.1L206 499.8ZM203.8 499.8L203.8 487L215.3 411.2L217.2 350.5L222.2 268.3L227.7 214L233.2 268.3L238.7 351.2L239.7 411.2L251.6 488.4L251.6 499.8ZM266.3 499.8L266.3 485.5L275.7 401L277.2 333.3L281.3 241.6L285.8 181L290.9 241.6L294.8 334.1L296.8 401L305.3 487.1L305.3 499.8ZM316 499.8L316 482.4L325.6 379.9L327.2 297.7L331.5 186.4L336.1 112.9L341.3 186.4L345.3 298.6L347.3 379.9L356.2 484.4L356.2 499.8ZM372.2 499.8L372.2 482.2L382.8 378.4L384.6 295.1L389.3 182.4L394.4 108L399.5 182.4L404.4 296.1L405.6 378.4L416.6 484.2L416.6 499.8ZM419.4 499.8L419.4 482.5L431.5 380.5L433.5 298.6L438.8 187.9L444.6 114.8L450.6 187.9L455.9 299.6L458 380.5L469.8 484.4L469.8 499.8ZM468.3 499.8L468.3 481.5L477.8 373.8L479.3 287.4L483.5 170.5L488.1 93.2L493.6 170.5L497.6 288.4L499.6 373.8L507.9 483.6L507.9 499.8ZM528 499.8L528 484.2L536.9 392.3L538.3 318.7L542.3 219L546.5 153.1L551.4 219L555.3 319.5L556.7 392.3L565.1 486L565.1 499.8ZM569.4 499.8L569.4 480L579.5 363L581.2 269.2L585.7 142.3L590.5 58.4L596.3 142.3L600.5 270.3L602.8 363L611.7 482.2L611.7 499.8ZM626 499.8L626 484.4L636.6 393.5L638.3 320.6L643 221.9L648.1 156.7L654.4 221.9L658.6 321.4L661.3 393.5L670.2 486.1L670.2 499.8ZM679.1 499.8L679.1 486.4L691.4 407.3L693.4 343.8L698.7 257.9L704.6 201.2L711.5 257.9L716.6 344.5L719.2 407.3L730 487.9L730 499.8ZM736 499.8L736 485.4L744.8 400.6L746.3 332.6L750.2 240.5L754.4 179.7L759 240.5L763.1 333.4L764 400.6L772.8 487L772.8 499.8ZM778 499.8L778 487.5L788 414.7L789.6 356.3L794 277.4L798.8 225.2L803.2 277.4L807.9 357L809 414.7L819.6 488.9L819.6 499.8ZM835.5 499.8L835.5 485.7L844.6 402.3L846.1 335.4L850.1 244.9L854.5 185.1L858.5 244.9L862.6 336.2L863.9 402.3L873.4 487.3L873.4 499.8Z" fill="#817854"/></g><rect x="0" y="431.4" width="1200" height="28.6" fill="#817854"/><g transform="translate(0.0 253.9) scale(0.5557 0.5557)"><path d="M0 304.5L700 304.5L700 346L0 346ZM5.1 304.5L5.1 295.1L15.9 272.2L11.6 245.4L19.2 220.1L17.6 195.6L22.4 168L23.2 145.9L25.3 116L27.5 96.2L30 116L32 146.2L33.2 168L37.5 196.2L36.6 220.1L43.5 246.2L40.2 272.2L49.9 296.1L49.9 304.5ZM72.1 304.5L72.1 298.5L82.8 284L78.6 267L86.2 251L84.6 235.5L89.3 218.1L90.1 204L92.2 185.1L94.4 172.5L96.5 185.1L99 204.2L99.1 218.1L104.5 235.9L101.9 251L110.4 267.5L104.8 284L116.7 299.2L116.7 304.5ZM134.5 304.5L134.5 292.5L146 263.1L141.4 228.7L149.5 196.2L147.8 164.8L152.9 129.4L153.7 101L156 62.6L158.4 37.2L161.2 62.6L163.8 101.4L164.2 129.4L169.8 165.5L167.4 196.2L175.9 229.7L170.7 263.1L182.3 293.8L182.3 304.5ZM201.8 304.5L201.8 297.3L214.4 279.7L209.4 259.2L218.4 239.9L216.5 221.1L222.1 200L223 183L225.4 160.1L228.1 144.9L230.9 160.1L233.6 183.2L234.1 200L240.2 221.5L237.6 239.9L247.1 259.8L241.2 279.7L254.4 298.1L254.4 304.5ZM256.4 304.5L256.4 295.3L271.5 272.8L265.5 246.5L276.2 221.8L274 197.8L280.6 170.7L281.7 149L284.6 119.6L287.8 100.2L291 119.6L294.7 149.2L294.7 170.7L302.5 198.3L298.6 221.8L310.7 247.3L302.6 272.8L319.2 296.3L319.2 304.5ZM332 304.5L332 293.6L344.2 266.9L339.3 235.7L348 206.3L346.2 177.8L351.5 145.7L352.4 119.9L354.8 85.1L357.4 62.1L360.3 85.1L362.4 120.2L364 145.7L368.7 178.4L368 206.3L375.5 236.6L372.2 266.9L382.7 294.8L382.7 304.5ZM390.2 304.5L390.2 292.1L402.7 261.7L397.7 226.2L406.6 192.8L404.7 160.3L410.2 123.8L411.1 94.5L413.6 54.8L416.2 28.6L419.1 54.8L422.1 94.8L422.3 123.8L428.6 161L425.6 192.8L435.4 227.2L429 261.7L442.2 293.4L442.2 304.5ZM460.5 304.5L460.5 297.3L471.4 279.7L467 259.1L474.8 239.7L473.2 220.9L478 199.7L478.7 182.7L480.9 159.7L483.1 144.5L486.1 159.7L488.2 182.9L489.3 199.7L493.8 221.3L492.7 239.7L499.7 259.7L496.2 279.7L505.8 298.1L505.8 304.5ZM517.8 304.5L517.8 296L532.2 275.2L526.4 250.9L536.6 227.9L534.5 205.7L540.9 180.7L541.9 160.6L544.7 133.4L547.7 115.5L551.2 133.4L553.7 160.8L555.6 180.7L561.1 206.2L560.3 227.9L569.1 251.6L565.2 275.2L577.6 296.9L577.6 304.5ZM576.7 304.5L576.7 296.9L589.5 278.4L584.3 256.7L593.4 236.2L591.6 216.4L597.2 194.1L598.1 176.2L600.6 151.9L603.3 135.9L606.4 151.9L609 176.4L609.9 194.1L615.7 216.8L613.6 236.2L622.7 257.3L617.5 278.4L630 297.7L630 304.5ZM631.2 304.5L631.2 291.3L646.9 259.2L640.6 221.6L651.7 186.1L649.4 151.8L656.3 113.1L657.4 82.1L660.5 40.1L663.8 12.3L667.1 40.1L669.5 82.4L671.7 113.1L677.5 152.6L677 186.1L686.5 222.7L682.7 259.2L696.3 292.8L696.3 304.5Z" fill="#656d4a"/></g><g transform="translate(389.0 253.9) scale(0.5557 0.5557)"><path d="M0 304.5L700 304.5L700 346L0 346ZM5.1 304.5L5.1 295.1L15.9 272.2L11.6 245.4L19.2 220.1L17.6 195.6L22.4 168L23.2 145.9L25.3 116L27.5 96.2L30 116L32 146.2L33.2 168L37.5 196.2L36.6 220.1L43.5 246.2L40.2 272.2L49.9 296.1L49.9 304.5ZM72.1 304.5L72.1 298.5L82.8 284L78.6 267L86.2 251L84.6 235.5L89.3 218.1L90.1 204L92.2 185.1L94.4 172.5L96.5 185.1L99 204.2L99.1 218.1L104.5 235.9L101.9 251L110.4 267.5L104.8 284L116.7 299.2L116.7 304.5ZM134.5 304.5L134.5 292.5L146 263.1L141.4 228.7L149.5 196.2L147.8 164.8L152.9 129.4L153.7 101L156 62.6L158.4 37.2L161.2 62.6L163.8 101.4L164.2 129.4L169.8 165.5L167.4 196.2L175.9 229.7L170.7 263.1L182.3 293.8L182.3 304.5ZM201.8 304.5L201.8 297.3L214.4 279.7L209.4 259.2L218.4 239.9L216.5 221.1L222.1 200L223 183L225.4 160.1L228.1 144.9L230.9 160.1L233.6 183.2L234.1 200L240.2 221.5L237.6 239.9L247.1 259.8L241.2 279.7L254.4 298.1L254.4 304.5ZM256.4 304.5L256.4 295.3L271.5 272.8L265.5 246.5L276.2 221.8L274 197.8L280.6 170.7L281.7 149L284.6 119.6L287.8 100.2L291 119.6L294.7 149.2L294.7 170.7L302.5 198.3L298.6 221.8L310.7 247.3L302.6 272.8L319.2 296.3L319.2 304.5ZM332 304.5L332 293.6L344.2 266.9L339.3 235.7L348 206.3L346.2 177.8L351.5 145.7L352.4 119.9L354.8 85.1L357.4 62.1L360.3 85.1L362.4 120.2L364 145.7L368.7 178.4L368 206.3L375.5 236.6L372.2 266.9L382.7 294.8L382.7 304.5ZM390.2 304.5L390.2 292.1L402.7 261.7L397.7 226.2L406.6 192.8L404.7 160.3L410.2 123.8L411.1 94.5L413.6 54.8L416.2 28.6L419.1 54.8L422.1 94.8L422.3 123.8L428.6 161L425.6 192.8L435.4 227.2L429 261.7L442.2 293.4L442.2 304.5ZM460.5 304.5L460.5 297.3L471.4 279.7L467 259.1L474.8 239.7L473.2 220.9L478 199.7L478.7 182.7L480.9 159.7L483.1 144.5L486.1 159.7L488.2 182.9L489.3 199.7L493.8 221.3L492.7 239.7L499.7 259.7L496.2 279.7L505.8 298.1L505.8 304.5ZM517.8 304.5L517.8 296L532.2 275.2L526.4 250.9L536.6 227.9L534.5 205.7L540.9 180.7L541.9 160.6L544.7 133.4L547.7 115.5L551.2 133.4L553.7 160.8L555.6 180.7L561.1 206.2L560.3 227.9L569.1 251.6L565.2 275.2L577.6 296.9L577.6 304.5ZM576.7 304.5L576.7 296.9L589.5 278.4L584.3 256.7L593.4 236.2L591.6 216.4L597.2 194.1L598.1 176.2L600.6 151.9L603.3 135.9L606.4 151.9L609 176.4L609.9 194.1L615.7 216.8L613.6 236.2L622.7 257.3L617.5 278.4L630 297.7L630 304.5ZM631.2 304.5L631.2 291.3L646.9 259.2L640.6 221.6L651.7 186.1L649.4 151.8L656.3 113.1L657.4 82.1L660.5 40.1L663.8 12.3L667.1 40.1L669.5 82.4L671.7 113.1L677.5 152.6L677 186.1L686.5 222.7L682.7 259.2L696.3 292.8L696.3 304.5Z" fill="#656d4a"/></g><g transform="translate(778.0 253.9) scale(0.5557 0.5557)"><path d="M0 304.5L700 304.5L700 346L0 346ZM5.1 304.5L5.1 295.1L15.9 272.2L11.6 245.4L19.2 220.1L17.6 195.6L22.4 168L23.2 145.9L25.3 116L27.5 96.2L30 116L32 146.2L33.2 168L37.5 196.2L36.6 220.1L43.5 246.2L40.2 272.2L49.9 296.1L49.9 304.5ZM72.1 304.5L72.1 298.5L82.8 284L78.6 267L86.2 251L84.6 235.5L89.3 218.1L90.1 204L92.2 185.1L94.4 172.5L96.5 185.1L99 204.2L99.1 218.1L104.5 235.9L101.9 251L110.4 267.5L104.8 284L116.7 299.2L116.7 304.5ZM134.5 304.5L134.5 292.5L146 263.1L141.4 228.7L149.5 196.2L147.8 164.8L152.9 129.4L153.7 101L156 62.6L158.4 37.2L161.2 62.6L163.8 101.4L164.2 129.4L169.8 165.5L167.4 196.2L175.9 229.7L170.7 263.1L182.3 293.8L182.3 304.5ZM201.8 304.5L201.8 297.3L214.4 279.7L209.4 259.2L218.4 239.9L216.5 221.1L222.1 200L223 183L225.4 160.1L228.1 144.9L230.9 160.1L233.6 183.2L234.1 200L240.2 221.5L237.6 239.9L247.1 259.8L241.2 279.7L254.4 298.1L254.4 304.5ZM256.4 304.5L256.4 295.3L271.5 272.8L265.5 246.5L276.2 221.8L274 197.8L280.6 170.7L281.7 149L284.6 119.6L287.8 100.2L291 119.6L294.7 149.2L294.7 170.7L302.5 198.3L298.6 221.8L310.7 247.3L302.6 272.8L319.2 296.3L319.2 304.5ZM332 304.5L332 293.6L344.2 266.9L339.3 235.7L348 206.3L346.2 177.8L351.5 145.7L352.4 119.9L354.8 85.1L357.4 62.1L360.3 85.1L362.4 120.2L364 145.7L368.7 178.4L368 206.3L375.5 236.6L372.2 266.9L382.7 294.8L382.7 304.5ZM390.2 304.5L390.2 292.1L402.7 261.7L397.7 226.2L406.6 192.8L404.7 160.3L410.2 123.8L411.1 94.5L413.6 54.8L416.2 28.6L419.1 54.8L422.1 94.8L422.3 123.8L428.6 161L425.6 192.8L435.4 227.2L429 261.7L442.2 293.4L442.2 304.5ZM460.5 304.5L460.5 297.3L471.4 279.7L467 259.1L474.8 239.7L473.2 220.9L478 199.7L478.7 182.7L480.9 159.7L483.1 144.5L486.1 159.7L488.2 182.9L489.3 199.7L493.8 221.3L492.7 239.7L499.7 259.7L496.2 279.7L505.8 298.1L505.8 304.5ZM517.8 304.5L517.8 296L532.2 275.2L526.4 250.9L536.6 227.9L534.5 205.7L540.9 180.7L541.9 160.6L544.7 133.4L547.7 115.5L551.2 133.4L553.7 160.8L555.6 180.7L561.1 206.2L560.3 227.9L569.1 251.6L565.2 275.2L577.6 296.9L577.6 304.5ZM576.7 304.5L576.7 296.9L589.5 278.4L584.3 256.7L593.4 236.2L591.6 216.4L597.2 194.1L598.1 176.2L600.6 151.9L603.3 135.9L606.4 151.9L609 176.4L609.9 194.1L615.7 216.8L613.6 236.2L622.7 257.3L617.5 278.4L630 297.7L630 304.5ZM631.2 304.5L631.2 291.3L646.9 259.2L640.6 221.6L651.7 186.1L649.4 151.8L656.3 113.1L657.4 82.1L660.5 40.1L663.8 12.3L667.1 40.1L669.5 82.4L671.7 113.1L677.5 152.6L677 186.1L686.5 222.7L682.7 259.2L696.3 292.8L696.3 304.5Z" fill="#656d4a"/></g><g transform="translate(1167.0 253.9) scale(0.5557 0.5557)"><path d="M0 304.5L700 304.5L700 346L0 346ZM5.1 304.5L5.1 295.1L15.9 272.2L11.6 245.4L19.2 220.1L17.6 195.6L22.4 168L23.2 145.9L25.3 116L27.5 96.2L30 116L32 146.2L33.2 168L37.5 196.2L36.6 220.1L43.5 246.2L40.2 272.2L49.9 296.1L49.9 304.5ZM72.1 304.5L72.1 298.5L82.8 284L78.6 267L86.2 251L84.6 235.5L89.3 218.1L90.1 204L92.2 185.1L94.4 172.5L96.5 185.1L99 204.2L99.1 218.1L104.5 235.9L101.9 251L110.4 267.5L104.8 284L116.7 299.2L116.7 304.5ZM134.5 304.5L134.5 292.5L146 263.1L141.4 228.7L149.5 196.2L147.8 164.8L152.9 129.4L153.7 101L156 62.6L158.4 37.2L161.2 62.6L163.8 101.4L164.2 129.4L169.8 165.5L167.4 196.2L175.9 229.7L170.7 263.1L182.3 293.8L182.3 304.5ZM201.8 304.5L201.8 297.3L214.4 279.7L209.4 259.2L218.4 239.9L216.5 221.1L222.1 200L223 183L225.4 160.1L228.1 144.9L230.9 160.1L233.6 183.2L234.1 200L240.2 221.5L237.6 239.9L247.1 259.8L241.2 279.7L254.4 298.1L254.4 304.5ZM256.4 304.5L256.4 295.3L271.5 272.8L265.5 246.5L276.2 221.8L274 197.8L280.6 170.7L281.7 149L284.6 119.6L287.8 100.2L291 119.6L294.7 149.2L294.7 170.7L302.5 198.3L298.6 221.8L310.7 247.3L302.6 272.8L319.2 296.3L319.2 304.5ZM332 304.5L332 293.6L344.2 266.9L339.3 235.7L348 206.3L346.2 177.8L351.5 145.7L352.4 119.9L354.8 85.1L357.4 62.1L360.3 85.1L362.4 120.2L364 145.7L368.7 178.4L368 206.3L375.5 236.6L372.2 266.9L382.7 294.8L382.7 304.5ZM390.2 304.5L390.2 292.1L402.7 261.7L397.7 226.2L406.6 192.8L404.7 160.3L410.2 123.8L411.1 94.5L413.6 54.8L416.2 28.6L419.1 54.8L422.1 94.8L422.3 123.8L428.6 161L425.6 192.8L435.4 227.2L429 261.7L442.2 293.4L442.2 304.5ZM460.5 304.5L460.5 297.3L471.4 279.7L467 259.1L474.8 239.7L473.2 220.9L478 199.7L478.7 182.7L480.9 159.7L483.1 144.5L486.1 159.7L488.2 182.9L489.3 199.7L493.8 221.3L492.7 239.7L499.7 259.7L496.2 279.7L505.8 298.1L505.8 304.5ZM517.8 304.5L517.8 296L532.2 275.2L526.4 250.9L536.6 227.9L534.5 205.7L540.9 180.7L541.9 160.6L544.7 133.4L547.7 115.5L551.2 133.4L553.7 160.8L555.6 180.7L561.1 206.2L560.3 227.9L569.1 251.6L565.2 275.2L577.6 296.9L577.6 304.5ZM576.7 304.5L576.7 296.9L589.5 278.4L584.3 256.7L593.4 236.2L591.6 216.4L597.2 194.1L598.1 176.2L600.6 151.9L603.3 135.9L606.4 151.9L609 176.4L609.9 194.1L615.7 216.8L613.6 236.2L622.7 257.3L617.5 278.4L630 297.7L630 304.5ZM631.2 304.5L631.2 291.3L646.9 259.2L640.6 221.6L651.7 186.1L649.4 151.8L656.3 113.1L657.4 82.1L660.5 40.1L663.8 12.3L667.1 40.1L669.5 82.4L671.7 113.1L677.5 152.6L677 186.1L686.5 222.7L682.7 259.2L696.3 292.8L696.3 304.5Z" fill="#656d4a"/></g><g transform="translate(1556.0 253.9) scale(0.5557 0.5557)"><path d="M0 304.5L700 304.5L700 346L0 346ZM5.1 304.5L5.1 295.1L15.9 272.2L11.6 245.4L19.2 220.1L17.6 195.6L22.4 168L23.2 145.9L25.3 116L27.5 96.2L30 116L32 146.2L33.2 168L37.5 196.2L36.6 220.1L43.5 246.2L40.2 272.2L49.9 296.1L49.9 304.5ZM72.1 304.5L72.1 298.5L82.8 284L78.6 267L86.2 251L84.6 235.5L89.3 218.1L90.1 204L92.2 185.1L94.4 172.5L96.5 185.1L99 204.2L99.1 218.1L104.5 235.9L101.9 251L110.4 267.5L104.8 284L116.7 299.2L116.7 304.5ZM134.5 304.5L134.5 292.5L146 263.1L141.4 228.7L149.5 196.2L147.8 164.8L152.9 129.4L153.7 101L156 62.6L158.4 37.2L161.2 62.6L163.8 101.4L164.2 129.4L169.8 165.5L167.4 196.2L175.9 229.7L170.7 263.1L182.3 293.8L182.3 304.5ZM201.8 304.5L201.8 297.3L214.4 279.7L209.4 259.2L218.4 239.9L216.5 221.1L222.1 200L223 183L225.4 160.1L228.1 144.9L230.9 160.1L233.6 183.2L234.1 200L240.2 221.5L237.6 239.9L247.1 259.8L241.2 279.7L254.4 298.1L254.4 304.5ZM256.4 304.5L256.4 295.3L271.5 272.8L265.5 246.5L276.2 221.8L274 197.8L280.6 170.7L281.7 149L284.6 119.6L287.8 100.2L291 119.6L294.7 149.2L294.7 170.7L302.5 198.3L298.6 221.8L310.7 247.3L302.6 272.8L319.2 296.3L319.2 304.5ZM332 304.5L332 293.6L344.2 266.9L339.3 235.7L348 206.3L346.2 177.8L351.5 145.7L352.4 119.9L354.8 85.1L357.4 62.1L360.3 85.1L362.4 120.2L364 145.7L368.7 178.4L368 206.3L375.5 236.6L372.2 266.9L382.7 294.8L382.7 304.5ZM390.2 304.5L390.2 292.1L402.7 261.7L397.7 226.2L406.6 192.8L404.7 160.3L410.2 123.8L411.1 94.5L413.6 54.8L416.2 28.6L419.1 54.8L422.1 94.8L422.3 123.8L428.6 161L425.6 192.8L435.4 227.2L429 261.7L442.2 293.4L442.2 304.5ZM460.5 304.5L460.5 297.3L471.4 279.7L467 259.1L474.8 239.7L473.2 220.9L478 199.7L478.7 182.7L480.9 159.7L483.1 144.5L486.1 159.7L488.2 182.9L489.3 199.7L493.8 221.3L492.7 239.7L499.7 259.7L496.2 279.7L505.8 298.1L505.8 304.5ZM517.8 304.5L517.8 296L532.2 275.2L526.4 250.9L536.6 227.9L534.5 205.7L540.9 180.7L541.9 160.6L544.7 133.4L547.7 115.5L551.2 133.4L553.7 160.8L555.6 180.7L561.1 206.2L560.3 227.9L569.1 251.6L565.2 275.2L577.6 296.9L577.6 304.5ZM576.7 304.5L576.7 296.9L589.5 278.4L584.3 256.7L593.4 236.2L591.6 216.4L597.2 194.1L598.1 176.2L600.6 151.9L603.3 135.9L606.4 151.9L609 176.4L609.9 194.1L615.7 216.8L613.6 236.2L622.7 257.3L617.5 278.4L630 297.7L630 304.5ZM631.2 304.5L631.2 291.3L646.9 259.2L640.6 221.6L651.7 186.1L649.4 151.8L656.3 113.1L657.4 82.1L660.5 40.1L663.8 12.3L667.1 40.1L669.5 82.4L671.7 113.1L677.5 152.6L677 186.1L686.5 222.7L682.7 259.2L696.3 292.8L696.3 304.5Z" fill="#656d4a"/></g><rect x="0" y="445.2" width="1200" height="14.8" fill="#656d4a"/><g transform="translate(0.0 232.8) scale(0.8416 0.8416)"><path d="M0 237.6L640 237.6L640 270L0 270ZM20.1 237.6L20.1 228.4L36.7 212.3L28.1 189.5L40.8 171.5L35.7 150.5L44.8 130.7L42.9 111.6L48.5 89.9L49.4 72.6L51.9 49.1L54.6 33.6L57.9 49.1L60.6 72.8L61.6 89.9L67.3 112L65.4 130.7L74.4 151.1L69.4 171.5L81.6 190.3L73.5 212.3L89 229.4L89 237.6ZM98.4 237.6L98.4 229.8L115.2 216L106.5 196.6L119.4 181.3L114.3 163.4L123.5 146.5L121.6 130.2L127.3 111.8L128.2 97L130.7 77L133.5 63.8L136.5 77L139 97.2L140.2 111.8L145.7 130.5L144.1 146.5L153 163.9L148.3 181.3L160.7 197.3L152.6 216L168.6 230.6L168.6 237.6ZM191.3 237.6L191.3 230.1L212.5 216.8L201.5 198.1L217.8 183.3L211.3 166.1L222.8 149.8L220.4 134.1L227.6 116.3L228.8 102.1L231.9 82.8L235.3 70.1L238.5 82.8L241.4 102.2L242.8 116.3L249.6 134.4L247.6 149.8L258.8 166.6L252.7 183.3L268.8 198.7L258.2 216.8L279.4 230.9L279.4 237.6ZM318.2 237.6L318.2 129.3L333.1 133.9L333.1 237.6ZM371.6 237.6L371.6 228.4L393.6 212.2L382.2 189.2L399.1 171.2L392.4 150L404.4 130.1L401.9 110.9L409.3 89.1L410.6 71.7L413.8 48.1L417.4 32.5L421.9 48.1L425.4 71.9L426.9 89.1L434.4 111.3L432.1 130.1L443.7 150.7L437.5 171.2L453.4 190L442.9 212.2L463.2 229.4L463.2 237.6ZM463.8 237.6L463.8 230.8L479.3 218.9L471.3 202.1L483.2 188.8L478.4 173.3L486.9 158.7L485.2 144.6L490.4 128.6L491.3 115.8L493.6 98.5L496.1 87.1L498.7 98.5L501.4 116L501.7 128.6L507.6 144.9L504.9 158.7L514.3 173.8L508.3 188.8L521.2 202.7L511.8 218.9L528.4 231.6L528.4 237.6ZM567.5 237.6L567.5 228.1L583.3 211.5L575.2 187.9L587.3 169.4L582.4 147.7L591.1 127.3L589.3 107.5L594.7 85.2L595.6 67.3L597.9 43.1L600.5 27.1L603 43.1L605.5 67.5L606.1 85.2L611.7 107.9L609.6 127.3L618.6 148.4L613.2 169.4L625.9 188.8L617 211.5L633.4 229.2L633.4 237.6Z" fill="#414833"/></g><g transform="translate(538.6 232.8) scale(0.8416 0.8416)"><path d="M0 237.6L640 237.6L640 270L0 270ZM20.1 237.6L20.1 228.4L36.7 212.3L28.1 189.5L40.8 171.5L35.7 150.5L44.8 130.7L42.9 111.6L48.5 89.9L49.4 72.6L51.9 49.1L54.6 33.6L57.9 49.1L60.6 72.8L61.6 89.9L67.3 112L65.4 130.7L74.4 151.1L69.4 171.5L81.6 190.3L73.5 212.3L89 229.4L89 237.6ZM98.4 237.6L98.4 229.8L115.2 216L106.5 196.6L119.4 181.3L114.3 163.4L123.5 146.5L121.6 130.2L127.3 111.8L128.2 97L130.7 77L133.5 63.8L136.5 77L139 97.2L140.2 111.8L145.7 130.5L144.1 146.5L153 163.9L148.3 181.3L160.7 197.3L152.6 216L168.6 230.6L168.6 237.6ZM191.3 237.6L191.3 230.1L212.5 216.8L201.5 198.1L217.8 183.3L211.3 166.1L222.8 149.8L220.4 134.1L227.6 116.3L228.8 102.1L231.9 82.8L235.3 70.1L238.5 82.8L241.4 102.2L242.8 116.3L249.6 134.4L247.6 149.8L258.8 166.6L252.7 183.3L268.8 198.7L258.2 216.8L279.4 230.9L279.4 237.6ZM318.2 237.6L318.2 129.3L333.1 133.9L333.1 237.6ZM371.6 237.6L371.6 228.4L393.6 212.2L382.2 189.2L399.1 171.2L392.4 150L404.4 130.1L401.9 110.9L409.3 89.1L410.6 71.7L413.8 48.1L417.4 32.5L421.9 48.1L425.4 71.9L426.9 89.1L434.4 111.3L432.1 130.1L443.7 150.7L437.5 171.2L453.4 190L442.9 212.2L463.2 229.4L463.2 237.6ZM463.8 237.6L463.8 230.8L479.3 218.9L471.3 202.1L483.2 188.8L478.4 173.3L486.9 158.7L485.2 144.6L490.4 128.6L491.3 115.8L493.6 98.5L496.1 87.1L498.7 98.5L501.4 116L501.7 128.6L507.6 144.9L504.9 158.7L514.3 173.8L508.3 188.8L521.2 202.7L511.8 218.9L528.4 231.6L528.4 237.6ZM567.5 237.6L567.5 228.1L583.3 211.5L575.2 187.9L587.3 169.4L582.4 147.7L591.1 127.3L589.3 107.5L594.7 85.2L595.6 67.3L597.9 43.1L600.5 27.1L603 43.1L605.5 67.5L606.1 85.2L611.7 107.9L609.6 127.3L618.6 148.4L613.2 169.4L625.9 188.8L617 211.5L633.4 229.2L633.4 237.6Z" fill="#414833"/></g><g transform="translate(1077.3 232.8) scale(0.8416 0.8416)"><path d="M0 237.6L640 237.6L640 270L0 270ZM20.1 237.6L20.1 228.4L36.7 212.3L28.1 189.5L40.8 171.5L35.7 150.5L44.8 130.7L42.9 111.6L48.5 89.9L49.4 72.6L51.9 49.1L54.6 33.6L57.9 49.1L60.6 72.8L61.6 89.9L67.3 112L65.4 130.7L74.4 151.1L69.4 171.5L81.6 190.3L73.5 212.3L89 229.4L89 237.6ZM98.4 237.6L98.4 229.8L115.2 216L106.5 196.6L119.4 181.3L114.3 163.4L123.5 146.5L121.6 130.2L127.3 111.8L128.2 97L130.7 77L133.5 63.8L136.5 77L139 97.2L140.2 111.8L145.7 130.5L144.1 146.5L153 163.9L148.3 181.3L160.7 197.3L152.6 216L168.6 230.6L168.6 237.6ZM191.3 237.6L191.3 230.1L212.5 216.8L201.5 198.1L217.8 183.3L211.3 166.1L222.8 149.8L220.4 134.1L227.6 116.3L228.8 102.1L231.9 82.8L235.3 70.1L238.5 82.8L241.4 102.2L242.8 116.3L249.6 134.4L247.6 149.8L258.8 166.6L252.7 183.3L268.8 198.7L258.2 216.8L279.4 230.9L279.4 237.6ZM318.2 237.6L318.2 129.3L333.1 133.9L333.1 237.6ZM371.6 237.6L371.6 228.4L393.6 212.2L382.2 189.2L399.1 171.2L392.4 150L404.4 130.1L401.9 110.9L409.3 89.1L410.6 71.7L413.8 48.1L417.4 32.5L421.9 48.1L425.4 71.9L426.9 89.1L434.4 111.3L432.1 130.1L443.7 150.7L437.5 171.2L453.4 190L442.9 212.2L463.2 229.4L463.2 237.6ZM463.8 237.6L463.8 230.8L479.3 218.9L471.3 202.1L483.2 188.8L478.4 173.3L486.9 158.7L485.2 144.6L490.4 128.6L491.3 115.8L493.6 98.5L496.1 87.1L498.7 98.5L501.4 116L501.7 128.6L507.6 144.9L504.9 158.7L514.3 173.8L508.3 188.8L521.2 202.7L511.8 218.9L528.4 231.6L528.4 237.6ZM567.5 237.6L567.5 228.1L583.3 211.5L575.2 187.9L587.3 169.4L582.4 147.7L591.1 127.3L589.3 107.5L594.7 85.2L595.6 67.3L597.9 43.1L600.5 27.1L603 43.1L605.5 67.5L606.1 85.2L611.7 107.9L609.6 127.3L618.6 148.4L613.2 169.4L625.9 188.8L617 211.5L633.4 229.2L633.4 237.6Z" fill="#414833"/></g><g transform="translate(1615.9 232.8) scale(0.8416 0.8416)"><path d="M0 237.6L640 237.6L640 270L0 270ZM20.1 237.6L20.1 228.4L36.7 212.3L28.1 189.5L40.8 171.5L35.7 150.5L44.8 130.7L42.9 111.6L48.5 89.9L49.4 72.6L51.9 49.1L54.6 33.6L57.9 49.1L60.6 72.8L61.6 89.9L67.3 112L65.4 130.7L74.4 151.1L69.4 171.5L81.6 190.3L73.5 212.3L89 229.4L89 237.6ZM98.4 237.6L98.4 229.8L115.2 216L106.5 196.6L119.4 181.3L114.3 163.4L123.5 146.5L121.6 130.2L127.3 111.8L128.2 97L130.7 77L133.5 63.8L136.5 77L139 97.2L140.2 111.8L145.7 130.5L144.1 146.5L153 163.9L148.3 181.3L160.7 197.3L152.6 216L168.6 230.6L168.6 237.6ZM191.3 237.6L191.3 230.1L212.5 216.8L201.5 198.1L217.8 183.3L211.3 166.1L222.8 149.8L220.4 134.1L227.6 116.3L228.8 102.1L231.9 82.8L235.3 70.1L238.5 82.8L241.4 102.2L242.8 116.3L249.6 134.4L247.6 149.8L258.8 166.6L252.7 183.3L268.8 198.7L258.2 216.8L279.4 230.9L279.4 237.6ZM318.2 237.6L318.2 129.3L333.1 133.9L333.1 237.6ZM371.6 237.6L371.6 228.4L393.6 212.2L382.2 189.2L399.1 171.2L392.4 150L404.4 130.1L401.9 110.9L409.3 89.1L410.6 71.7L413.8 48.1L417.4 32.5L421.9 48.1L425.4 71.9L426.9 89.1L434.4 111.3L432.1 130.1L443.7 150.7L437.5 171.2L453.4 190L442.9 212.2L463.2 229.4L463.2 237.6ZM463.8 237.6L463.8 230.8L479.3 218.9L471.3 202.1L483.2 188.8L478.4 173.3L486.9 158.7L485.2 144.6L490.4 128.6L491.3 115.8L493.6 98.5L496.1 87.1L498.7 98.5L501.4 116L501.7 128.6L507.6 144.9L504.9 158.7L514.3 173.8L508.3 188.8L521.2 202.7L511.8 218.9L528.4 231.6L528.4 237.6ZM567.5 237.6L567.5 228.1L583.3 211.5L575.2 187.9L587.3 169.4L582.4 147.7L591.1 127.3L589.3 107.5L594.7 85.2L595.6 67.3L597.9 43.1L600.5 27.1L603 43.1L605.5 67.5L606.1 85.2L611.7 107.9L609.6 127.3L618.6 148.4L613.2 169.4L625.9 188.8L617 211.5L633.4 229.2L633.4 237.6Z" fill="#414833"/></g><rect x="0" y="459.0" width="1200" height="1.0" fill="#414833"/>
<text x="16" y="30" font-family="sans-serif" font-size="20" fill="#414833">Forest</text>
</svg>